HIERARCHY
ROOT Hips
{
	OFFSET 0.000000 89.005402 0.000000
	CHANNELS 6 Xposition Yposition Zposition Xrotation Yrotation Zrotation
	JOINT Spine
	{
		OFFSET 0.116900 10.681000 0.373400
		CHANNELS 3 Xrotation Yrotation Zrotation
		JOINT Spine1
		{
			OFFSET 0.000000 13.840401 0.053500
			CHANNELS 3 Xrotation Yrotation Zrotation
			JOINT Spine2
			{
				OFFSET 0.000000 14.712700 -0.366200
				CHANNELS 3 Xrotation Yrotation Zrotation
				JOINT Neck
				{
					OFFSET 0.000000 35.415497 -3.314200
					CHANNELS 3 Xrotation Yrotation Zrotation
					JOINT Head
					{
						OFFSET 0.000000 16.899200 1.218300
						CHANNELS 3 Xrotation Yrotation Zrotation
						JOINT HeadTop_End
						{
							OFFSET 0.000000 22.206207 2.192500
							CHANNELS 3 Xrotation Yrotation Zrotation
							End Site
							{
								OFFSET 0.000000 22.314178 0.000000
							}
						}
					}
				}
				JOINT LeftShoulder
				{
					OFFSET 12.896400 26.716293 -4.548400
					CHANNELS 3 Xrotation Yrotation Zrotation
					JOINT LeftArm
					{
						OFFSET 19.027000 -4.857010 -1.718400
						CHANNELS 3 Xrotation Yrotation Zrotation
						JOINT LeftForeArm
						{
							OFFSET 24.179897 0.000000 0.000000
							CHANNELS 3 Xrotation Yrotation Zrotation
							JOINT LeftHand
							{
								OFFSET 27.156403 0.000000 0.000000
								CHANNELS 3 Xrotation Yrotation Zrotation
								JOINT LeftHandIndex1
								{
									OFFSET 16.441200 0.000000 0.000000
									CHANNELS 3 Xrotation Yrotation Zrotation
									JOINT LeftHandIndex2
									{
										OFFSET 4.821899 0.000000 0.000000
										CHANNELS 3 Xrotation Yrotation Zrotation
										JOINT LeftHandIndex3
										{
											OFFSET 6.386497 0.000000 0.000000
											CHANNELS 3 Xrotation Yrotation Zrotation
											JOINT LeftHandIndex4
											{
												OFFSET 5.188988 0.000000 0.000000
												CHANNELS 3 Xrotation Yrotation Zrotation
												End Site
												{
													OFFSET -0.178703 5.185913 0.000177
												}
											}
										}
									}
								}
								JOINT LeftHandThumb1
								{
									OFFSET 6.534897 -5.032593 5.900300
									CHANNELS 3 Xrotation Yrotation Zrotation
									JOINT LeftHandThumb2
									{
										OFFSET 3.818176 -2.204422 2.204423
										CHANNELS 3 Xrotation Yrotation Zrotation
										JOINT LeftHandThumb3
										{
											OFFSET 3.252098 -1.877594 1.877601
											CHANNELS 3 Xrotation Yrotation Zrotation
											JOINT LeftHandThumb4
											{
												OFFSET 5.251778 -3.032120 3.032117
												CHANNELS 3 Xrotation Yrotation Zrotation
												End Site
												{
													OFFSET 0.000023 6.780014 0.000000
												}
											}
										}
									}
								}
							}
						}
					}
				}
				JOINT RightShoulder
				{
					OFFSET -12.896300 26.716293 -4.548400
					CHANNELS 3 Xrotation Yrotation Zrotation
					JOINT RightArm
					{
						OFFSET -19.027000 -4.857010 -1.718400
						CHANNELS 3 Xrotation Yrotation Zrotation
						JOINT RightForeArm
						{
							OFFSET -24.179897 0.000000 0.000000
							CHANNELS 3 Xrotation Yrotation Zrotation
							JOINT RightHand
							{
								OFFSET -27.156403 0.000000 0.000000
								CHANNELS 3 Xrotation Yrotation Zrotation
								JOINT RightHandThumb1
								{
									OFFSET -6.591202 -4.852203 5.988100
									CHANNELS 3 Xrotation Yrotation Zrotation
									JOINT RightHandThumb2
									{
										OFFSET -3.818176 -2.204422 2.204423
										CHANNELS 3 Xrotation Yrotation Zrotation
										JOINT RightHandThumb3
										{
											OFFSET -3.252098 -1.877594 1.877601
											CHANNELS 3 Xrotation Yrotation Zrotation
											JOINT RightHandThumb4
											{
												OFFSET -5.251778 -3.032120 3.032117
												CHANNELS 3 Xrotation Yrotation Zrotation
												End Site
												{
													OFFSET -0.000023 6.780014 0.000000
												}
											}
										}
									}
								}
								JOINT RightHandIndex1
								{
									OFFSET -16.029404 0.000000 0.000000
									CHANNELS 3 Xrotation Yrotation Zrotation
									JOINT RightHandIndex2
									{
										OFFSET -5.213303 0.000000 0.000000
										CHANNELS 3 Xrotation Yrotation Zrotation
										JOINT RightHandIndex3
										{
											OFFSET -6.386528 0.000000 0.000000
											CHANNELS 3 Xrotation Yrotation Zrotation
											JOINT RightHandIndex4
											{
												OFFSET -5.189026 0.000000 0.000000
												CHANNELS 3 Xrotation Yrotation Zrotation
												End Site
												{
													OFFSET 0.236702 5.183624 0.001972
												}
											}
										}
									}
								}
							}
						}
					}
				}
			}
		}
	}
	JOINT LeftUpLeg
	{
		OFFSET 14.073000 -7.904099 -1.463000
		CHANNELS 3 Xrotation Yrotation Zrotation
		JOINT LeftLeg
		{
			OFFSET -0.109806 -34.073280 4.093200
			CHANNELS 3 Xrotation Yrotation Zrotation
			JOINT LeftFoot
			{
				OFFSET 0.109806 -29.899420 -6.319000
				CHANNELS 3 Xrotation Yrotation Zrotation
				JOINT LeftToeBase
				{
					OFFSET 1.551100 -14.988700 20.535801
					CHANNELS 3 Xrotation Yrotation Zrotation
					JOINT LeftToe_End
					{
						OFFSET 0.221200 0.570800 13.248301
						CHANNELS 3 Xrotation Yrotation Zrotation
						End Site
						{
							OFFSET 0.000000 13.262435 0.000000
						}
					}
				}
			}
		}
	}
	JOINT RightUpLeg
	{
		OFFSET -13.839300 -7.904099 -1.463000
		CHANNELS 3 Xrotation Yrotation Zrotation
		JOINT RightLeg
		{
			OFFSET 0.109694 -34.073219 4.093300
			CHANNELS 3 Xrotation Yrotation Zrotation
			JOINT RightFoot
			{
				OFFSET -0.109694 -29.899384 -6.319200
				CHANNELS 3 Xrotation Yrotation Zrotation
				JOINT RightToeBase
				{
					OFFSET -1.551100 -14.988700 20.535801
					CHANNELS 3 Xrotation Yrotation Zrotation
					JOINT RightToe_End
					{
						OFFSET -0.221200 0.570900 13.248299
						CHANNELS 3 Xrotation Yrotation Zrotation
						End Site
						{
							OFFSET 0.000000 13.262440 0.000000
						}
					}
				}
			}
		}
	}
}
MOTION
Frames: 6
Frame Time: 0.033333
1.675023 81.724716 0.534376 -27.940781 66.813027 21.001321 4.908037 0.001815 -1.317968 9.861851 -0.517958 0.789346 9.855906 -0.618767 0.800456 -1.826889 -6.445055 -1.380804 -3.056570 -35.493027 9.255297 0.000000 -0.000001 0.000000 0.327535 -0.148053 -0.651737 -40.107902 -49.333012 -53.596190 0.000072 -112.080638 0.000059 -25.520877 7.888423 5.082931 0.047079 0.805463 -6.689925 0.047087 0.805519 -6.690534 0.047088 0.805524 -6.690526 0.000000 -0.000002 0.000001 -3.904039 2.504164 20.920180 3.939055 7.948708 0.746826 -0.579469 1.575007 2.538715 0.000002 0.000001 0.000000 0.617169 -1.136976 5.414475 -49.160505 -12.637633 33.161299 0.000042 69.572088 -0.000039 18.853197 17.657714 1.903314 -1.849257 -3.581796 -6.586146 4.637189 -8.634129 -0.225411 -1.273757 0.137316 -2.094875 0.000001 0.000000 -0.000004 0.031133 -0.658618 5.412642 0.031130 -0.658599 5.412647 0.031137 -0.658628 5.412622 0.000001 0.000000 -0.000000 -13.050171 18.891677 30.858819 42.329483 -3.458579 2.714160 -13.588187 3.514633 -18.566519 -17.226208 0.000027 0.000011 -0.000000 -0.000000 -0.000000 -13.132625 -9.761688 -14.367300 24.808852 10.660166 -3.739519 -2.965103 1.730993 9.505106 -0.237567 -0.001992 0.485474 0.000000 0.000001 -0.000000 
1.676661 81.717148 0.545581 -28.025560 66.945389 20.894689 5.033918 0.122067 -1.283767 10.106318 -0.265316 0.892497 10.102882 -0.369794 0.903947 -2.219949 -6.535478 -1.535180 -3.211981 -36.068969 9.347677 -0.000000 0.000002 0.000000 0.351285 -0.201554 -1.332854 -42.091795 -50.065276 -54.557072 -0.000019 -111.656313 -0.000017 -25.764910 8.414149 4.189810 0.047079 0.805461 -6.689925 0.047091 0.805520 -6.690534 0.047090 0.805522 -6.690526 0.000000 -0.000001 0.000001 -3.904038 2.504163 20.920183 3.939054 7.948706 0.746822 -0.579470 1.575006 2.538715 -0.000000 -0.000001 0.000005 0.537339 -1.744046 5.344298 -49.528919 -12.755884 33.231411 -0.000031 69.634707 0.000034 18.828364 17.863622 1.596943 -1.849257 -3.581791 -6.586144 4.637189 -8.634134 -0.225417 -1.273756 0.137320 -2.094870 0.000001 0.000002 -0.000001 0.031133 -0.658614 5.412641 0.031127 -0.658595 5.412649 0.031136 -0.658628 5.412622 0.000000 0.000002 0.000001 -13.395360 18.808396 31.215450 42.572692 -3.679091 2.781301 -13.565920 3.424625 -18.567079 -17.370752 -0.000017 -0.000005 0.000001 -0.000001 0.000000 -13.126843 -9.774927 -14.198029 25.021937 10.753607 -3.541788 -3.044883 1.268428 8.935347 -0.159482 -0.000870 0.326040 -0.000001 -0.000001 -0.000000 
1.644563 81.714874 0.540508 -27.652016 67.464196 20.350596 5.108582 0.203657 -1.234652 10.248631 -0.074518 1.026609 10.247095 -0.181408 1.038251 -2.567722 -6.621445 -1.706644 -3.295823 -36.656672 9.476817 0.000000 -0.000000 -0.000000 0.375383 -0.312441 -1.909354 -43.833272 -50.704230 -55.424560 0.000060 -111.415159 0.000056 -26.075311 8.828663 3.455363 0.047080 0.805464 -6.689928 0.047090 0.805519 -6.690535 0.047088 0.805523 -6.690525 0.000001 0.000001 -0.000001 -3.904043 2.504166 20.920180 3.939050 7.948708 0.746825 -0.579469 1.575007 2.538713 0.000003 -0.000001 0.000002 0.476284 -2.265870 5.373525 -49.940485 -12.798668 33.006951 -0.000012 69.612175 0.000010 18.536708 18.150652 1.293572 -1.849256 -3.581799 -6.586143 4.637189 -8.634134 -0.225419 -1.273754 0.137315 -2.094872 -0.000004 -0.000002 0.000000 0.031132 -0.658617 5.412638 0.031128 -0.658600 5.412649 0.031138 -0.658627 5.412620 0.000000 0.000003 -0.000000 -14.258221 18.422588 31.503950 42.926141 -3.995600 2.922988 -13.484270 3.302922 -18.485203 -17.525550 -0.000029 -0.000006 -0.000000 -0.000001 -0.000000 -13.316679 -9.784607 -14.012878 25.166553 10.848056 -3.255178 -3.098215 0.505923 8.309940 -0.084832 -0.000249 0.173530 0.000000 0.000002 0.000001 
1.580310 81.720551 0.500816 -27.072684 68.137366 19.732855 5.141991 0.241318 -1.188606 10.309885 0.033742 1.139270 10.309452 -0.074491 1.151007 -2.804012 -6.684500 -1.839353 -3.432909 -37.114691 9.581794 -0.000000 -0.000000 -0.000000 0.393993 -0.438186 -2.298444 -45.593780 -51.122245 -56.541115 0.000068 -111.185678 0.000059 -26.329852 9.276367 2.707826 0.047076 0.805461 -6.689926 0.047090 0.805519 -6.690533 0.047089 0.805524 -6.690526 -0.000001 -0.000002 0.000001 -3.904041 2.504165 20.920178 3.939052 7.948702 0.746829 -0.579469 1.575009 2.538712 -0.000001 0.000001 0.000000 0.423464 -2.680981 5.318978 -50.177739 -12.969903 32.870180 0.000028 69.643908 -0.000039 18.344688 18.388006 1.018564 -1.849256 -3.581793 -6.586142 4.637189 -8.634135 -0.225411 -1.273755 0.137316 -2.094872 -0.000002 -0.000002 -0.000003 0.031133 -0.658612 5.412639 0.031128 -0.658600 5.412650 0.031138 -0.658630 5.412621 0.000002 -0.000002 0.000000 -15.195766 17.858834 31.491513 43.242891 -4.231057 3.101686 -13.345316 3.162183 -18.365771 -17.671822 -0.000011 -0.000001 -0.000001 0.000000 -0.000000 -13.523151 -9.836904 -13.971774 24.971740 10.882189 -3.042404 -2.997816 -0.095079 8.221391 -0.071325 -0.000185 0.145939 -0.000000 0.000002 -0.000000 
1.501059 81.726860 0.445945 -26.725485 68.632002 19.386587 5.154277 0.245138 -1.166186 10.331229 0.066312 1.193743 10.331115 -0.042575 1.205545 -2.900588 -6.714958 -1.905692 -3.594720 -37.363764 9.675941 -0.000000 -0.000000 -0.000000 0.404432 -0.517025 -2.512668 -47.368564 -51.210334 -57.904240 -0.000025 -110.887103 -0.000019 -26.855623 9.714361 1.659264 0.047072 0.805464 -6.689926 0.047088 0.805519 -6.690534 0.047090 0.805524 -6.690523 0.000002 0.000001 0.000000 -3.904042 2.504165 20.920180 3.939054 7.948709 0.746824 -0.579470 1.575007 2.538719 -0.000001 0.000001 0.000003 0.381676 -2.949242 5.174551 -50.183029 -13.231325 32.927420 -0.000024 69.721792 0.000027 18.327667 18.566710 0.747064 -1.849260 -3.581797 -6.586149 4.637193 -8.634136 -0.225413 -1.273754 0.137312 -2.094874 -0.000003 -0.000003 -0.000003 0.031133 -0.658615 5.412638 0.031130 -0.658599 5.412649 0.031140 -0.658627 5.412623 -0.000001 0.000001 -0.000001 -15.861972 17.407675 31.390685 43.482866 -4.412235 3.244512 -13.218747 3.026427 -18.244048 -17.795394 -0.000019 -0.000002 -0.000000 -0.000000 -0.000000 -13.546743 -9.906842 -13.975277 24.491680 10.859880 -2.971095 -2.778815 -0.240042 8.632586 -0.109884 -0.000449 0.224759 0.000000 0.000000 -0.000001 
1.409490 81.737755 0.398569 -26.829876 68.870717 19.516453 5.165255 0.233180 -1.177310 10.352174 0.052693 1.177932 10.351913 -0.056828 1.189833 -2.906535 -6.720593 -1.936925 -3.585815 -37.464168 9.869361 0.000000 -0.000000 0.000000 0.407053 -0.524345 -2.590780 -49.040004 -50.938096 -59.351967 0.000106 -110.566754 0.000114 -27.906700 10.104365 0.310821 0.047076 0.805465 -6.689926 0.047087 0.805517 -6.690534 0.047086 0.805522 -6.690526 -0.000002 -0.000003 -0.000000 -3.904041 2.504168 20.920181 3.939054 7.948706 0.746822 -0.579469 1.575006 2.538715 -0.000001 -0.000000 -0.000000 0.353613 -3.087960 5.004271 -50.021461 -13.476192 33.154151 -0.000126 69.813344 0.000131 18.406002 18.690000 0.480051 -1.849259 -3.581795 -6.586141 4.637186 -8.634133 -0.225414 -1.273753 0.137315 -2.094871 -0.000000 -0.000002 -0.000001 0.031132 -0.658614 5.412640 0.031128 -0.658599 5.412647 0.031139 -0.658633 5.412622 0.000002 -0.000004 -0.000002 -16.144709 17.167453 31.277506 43.597002 -4.548623 3.328196 -13.095679 2.891908 -18.139225 -17.878485 -0.000022 -0.000009 0.000000 0.000001 -0.000000 -13.488276 -9.980027 -14.027591 24.167127 10.856435 -2.957191 -2.647631 -0.047501 8.916514 -0.126242 -0.000534 0.258214 -0.000000 -0.000002 0.000000 
